<mxfile>
    <diagram id="XYWUSv4xxxbyoeqGCXGf" name="Page-1">
        <mxGraphModel dx="1597" dy="1598" grid="1" gridSize="10" guides="1" tooltips="1" connect="1" arrows="1" fold="1" page="1" pageScale="1" pageWidth="827" pageHeight="1169" math="0" shadow="0">
            <root>
                <mxCell id="0"/>
                <mxCell id="1" parent="0"/>
                <mxCell id="25" value="&lt;span style=&quot;font-size: 16px&quot;&gt;Lista Litigantes&lt;br&gt;&lt;br&gt;&lt;br&gt;&lt;br&gt;&lt;br&gt;&lt;/span&gt;" style="shape=manualInput;whiteSpace=wrap;html=1;" parent="1" vertex="1">
                    <mxGeometry x="730" y="50" width="233" height="240" as="geometry"/>
                </mxCell>
                <mxCell id="2" value="" style="shape=display;whiteSpace=wrap;html=1;" parent="1" vertex="1">
                    <mxGeometry x="80" y="130" width="80" height="40" as="geometry"/>
                </mxCell>
                <mxCell id="3" value="&lt;font style=&quot;font-size: 16px&quot;&gt;Lista Documentos x CUIL&lt;br&gt;&lt;br&gt;&lt;br&gt;&lt;br&gt;&lt;br&gt;&lt;br&gt;&lt;br&gt;&lt;br&gt;&lt;br&gt;&lt;/font&gt;" style="shape=manualInput;whiteSpace=wrap;html=1;" parent="1" vertex="1">
                    <mxGeometry x="1040" y="50" width="233" height="240" as="geometry"/>
                </mxCell>
                <mxCell id="48" style="edgeStyle=orthogonalEdgeStyle;rounded=0;orthogonalLoop=1;jettySize=auto;html=1;exitX=0.75;exitY=0;exitDx=0;exitDy=0;entryX=0.402;entryY=1.085;entryDx=0;entryDy=0;entryPerimeter=0;fontSize=39;fontColor=#FFFF33;" edge="1" parent="1" source="4" target="44">
                    <mxGeometry relative="1" as="geometry"/>
                </mxCell>
                <mxCell id="4" value="" style="shape=process;whiteSpace=wrap;html=1;backgroundOutline=1;" parent="1" vertex="1">
                    <mxGeometry x="80" y="420" width="120" height="60" as="geometry"/>
                </mxCell>
                <mxCell id="5" value="" style="shape=cylinder3;whiteSpace=wrap;html=1;boundedLbl=1;backgroundOutline=1;size=15;" parent="1" vertex="1">
                    <mxGeometry x="-100" y="400" width="60" height="80" as="geometry"/>
                </mxCell>
                <mxCell id="23" style="edgeStyle=orthogonalEdgeStyle;rounded=0;orthogonalLoop=1;jettySize=auto;html=1;exitX=0;exitY=0.5;exitDx=0;exitDy=0;entryX=1;entryY=0.384;entryDx=0;entryDy=0;entryPerimeter=0;fontSize=14;fontColor=#FFFF33;" parent="1" source="6" target="7" edge="1">
                    <mxGeometry relative="1" as="geometry"/>
                </mxCell>
                <mxCell id="6" value="" style="rounded=0;whiteSpace=wrap;html=1;" parent="1" vertex="1">
                    <mxGeometry x="490" y="420" width="120" height="60" as="geometry"/>
                </mxCell>
                <mxCell id="7" value="" style="whiteSpace=wrap;html=1;aspect=fixed;" parent="1" vertex="1">
                    <mxGeometry x="330" y="420" width="80" height="80" as="geometry"/>
                </mxCell>
                <mxCell id="8" value="ROUTER" style="text;html=1;strokeColor=none;fillColor=none;align=center;verticalAlign=middle;whiteSpace=wrap;rounded=0;fontColor=#FFFF33;fontStyle=1;fontSize=14;" parent="1" vertex="1">
                    <mxGeometry x="350" y="390" width="40" height="20" as="geometry"/>
                </mxCell>
                <mxCell id="11" value="APP" style="text;html=1;strokeColor=none;fillColor=none;align=center;verticalAlign=middle;whiteSpace=wrap;rounded=0;fontColor=#FFFF33;fontStyle=1;fontSize=14;" parent="1" vertex="1">
                    <mxGeometry x="530" y="390" width="40" height="20" as="geometry"/>
                </mxCell>
                <mxCell id="12" value="CONTROLLER" style="text;html=1;strokeColor=none;fillColor=none;align=center;verticalAlign=middle;whiteSpace=wrap;rounded=0;fontColor=#FFFF33;fontStyle=1;fontSize=14;" parent="1" vertex="1">
                    <mxGeometry x="120" y="390" width="40" height="20" as="geometry"/>
                </mxCell>
                <mxCell id="13" value="VIEW" style="text;html=1;strokeColor=none;fillColor=none;align=center;verticalAlign=middle;whiteSpace=wrap;rounded=0;fontColor=#FFFF33;fontStyle=1;fontSize=14;" parent="1" vertex="1">
                    <mxGeometry x="110" y="200" width="40" height="20" as="geometry"/>
                </mxCell>
                <mxCell id="14" value="DATABASE" style="text;html=1;strokeColor=none;fillColor=none;align=center;verticalAlign=middle;whiteSpace=wrap;rounded=0;fontColor=#FFFF33;fontStyle=1;fontSize=14;" parent="1" vertex="1">
                    <mxGeometry x="-90" y="370" width="40" height="20" as="geometry"/>
                </mxCell>
                <mxCell id="15" value="FRONTEND" style="text;html=1;strokeColor=none;fillColor=none;align=center;verticalAlign=middle;whiteSpace=wrap;rounded=0;fontColor=#FFFF33;fontStyle=1;fontSize=39;" parent="1" vertex="1">
                    <mxGeometry x="1110" y="-90" width="40" height="20" as="geometry"/>
                </mxCell>
                <mxCell id="16" value="&lt;font color=&quot;#99ffff&quot;&gt;LitigantesDocs.EJS&lt;/font&gt;" style="text;html=1;strokeColor=none;fillColor=none;align=center;verticalAlign=middle;whiteSpace=wrap;rounded=0;fontSize=14;fontColor=#FFFF33;" parent="1" vertex="1">
                    <mxGeometry x="1136.5" y="10" width="40" height="20" as="geometry"/>
                </mxCell>
                <mxCell id="17" value="MODAL" style="text;html=1;strokeColor=none;fillColor=none;align=center;verticalAlign=middle;whiteSpace=wrap;rounded=0;fontSize=14;fontColor=#FFFF33;" parent="1" vertex="1">
                    <mxGeometry x="1413" y="16" width="40" height="20" as="geometry"/>
                </mxCell>
                <mxCell id="20" value="" style="rounded=1;whiteSpace=wrap;html=1;fontSize=14;fontColor=#FFFF33;" parent="1" vertex="1">
                    <mxGeometry x="1373" y="59" width="120" height="60" as="geometry"/>
                </mxCell>
                <mxCell id="22" value="&lt;font color=&quot;#ff66b3&quot;&gt;Submit&lt;/font&gt;" style="shape=hexagon;perimeter=hexagonPerimeter2;whiteSpace=wrap;html=1;fixedSize=1;fontSize=14;fontColor=#FFFF33;" parent="1" vertex="1">
                    <mxGeometry x="1393" y="75" width="80" height="30" as="geometry"/>
                </mxCell>
                <mxCell id="26" value="&lt;font color=&quot;#99ffff&quot;&gt;litigantes_lista.EJS&lt;/font&gt;" style="text;html=1;strokeColor=none;fillColor=none;align=center;verticalAlign=middle;whiteSpace=wrap;rounded=0;fontSize=14;fontColor=#FFFF33;" parent="1" vertex="1">
                    <mxGeometry x="820" y="10" width="40" height="20" as="geometry"/>
                </mxCell>
                <mxCell id="28" value="cd_re_Create.ejs" style="text;html=1;strokeColor=none;fillColor=none;align=center;verticalAlign=middle;whiteSpace=wrap;rounded=0;fontSize=14;fontColor=#FFFF33;" parent="1" vertex="1">
                    <mxGeometry x="1413" y="39" width="40" height="20" as="geometry"/>
                </mxCell>
                <mxCell id="41" style="edgeStyle=orthogonalEdgeStyle;rounded=0;orthogonalLoop=1;jettySize=auto;html=1;entryX=0;entryY=0.5;entryDx=0;entryDy=0;fontSize=14;fontColor=#FFFF33;" parent="1" source="29" target="3" edge="1">
                    <mxGeometry relative="1" as="geometry"/>
                </mxCell>
                <mxCell id="29" value="&lt;span style=&quot;color: rgb(255 , 102 , 179)&quot;&gt;QUERY DOCS x CUIL&lt;/span&gt;" style="shape=hexagon;perimeter=hexagonPerimeter2;whiteSpace=wrap;html=1;fixedSize=1;fontSize=14;fontColor=#FFFF33;" parent="1" vertex="1">
                    <mxGeometry x="761.5" y="145" width="170" height="30" as="geometry"/>
                </mxCell>
                <mxCell id="30" value="&lt;font style=&quot;font-size: 16px&quot;&gt;Lista Personas&lt;br&gt;&lt;br&gt;&lt;br&gt;&lt;br&gt;&lt;br&gt;&lt;br&gt;&lt;br&gt;&lt;/font&gt;" style="shape=manualInput;whiteSpace=wrap;html=1;" parent="1" vertex="1">
                    <mxGeometry x="728.5" y="360" width="233" height="210" as="geometry"/>
                </mxCell>
                <mxCell id="31" value="&lt;font color=&quot;#ff66b3&quot;&gt;JUDICIALES (SI)&lt;/font&gt;" style="shape=hexagon;perimeter=hexagonPerimeter2;whiteSpace=wrap;html=1;fixedSize=1;fontSize=14;fontColor=#FFFF33;" parent="1" vertex="1">
                    <mxGeometry x="761.5" y="460" width="170" height="30" as="geometry"/>
                </mxCell>
                <mxCell id="36" style="edgeStyle=orthogonalEdgeStyle;rounded=0;orthogonalLoop=1;jettySize=auto;html=1;exitX=1;exitY=0.5;exitDx=0;exitDy=0;entryX=0;entryY=0.5;entryDx=0;entryDy=0;fontSize=14;fontColor=#FFFF33;" parent="1" source="32" target="34" edge="1">
                    <mxGeometry relative="1" as="geometry">
                        <Array as="points">
                            <mxPoint x="1040" y="535"/>
                            <mxPoint x="1040" y="400"/>
                            <mxPoint x="1373" y="400"/>
                        </Array>
                    </mxGeometry>
                </mxCell>
                <mxCell id="32" value="&lt;font color=&quot;#ff66b3&quot;&gt;QUERY DETAIL x CUIL&lt;/font&gt;" style="shape=hexagon;perimeter=hexagonPerimeter2;whiteSpace=wrap;html=1;fixedSize=1;fontSize=14;fontColor=#FFFF33;" parent="1" vertex="1">
                    <mxGeometry x="761.5" y="520" width="170" height="30" as="geometry"/>
                </mxCell>
                <mxCell id="34" value="" style="rounded=1;whiteSpace=wrap;html=1;fontSize=14;fontColor=#FFFF33;" parent="1" vertex="1">
                    <mxGeometry x="1373" y="350" width="120" height="60" as="geometry"/>
                </mxCell>
                <mxCell id="35" value="modal_personas_Detalle.ejs" style="text;html=1;strokeColor=none;fillColor=none;align=center;verticalAlign=middle;whiteSpace=wrap;rounded=0;fontSize=14;fontColor=#FFFF33;" parent="1" vertex="1">
                    <mxGeometry x="1413" y="310" width="40" height="20" as="geometry"/>
                </mxCell>
                <mxCell id="38" style="edgeStyle=orthogonalEdgeStyle;rounded=0;orthogonalLoop=1;jettySize=auto;html=1;entryX=0;entryY=0.5;entryDx=0;entryDy=0;fontSize=14;fontColor=#FFFF33;" parent="1" source="37" target="34" edge="1">
                    <mxGeometry relative="1" as="geometry">
                        <Array as="points">
                            <mxPoint x="1190" y="360"/>
                            <mxPoint x="1373" y="360"/>
                        </Array>
                    </mxGeometry>
                </mxCell>
                <mxCell id="37" value="&lt;font color=&quot;#ff66b3&quot;&gt;QUERY DETAIL x CUIL&lt;/font&gt;" style="shape=hexagon;perimeter=hexagonPerimeter2;whiteSpace=wrap;html=1;fixedSize=1;fontSize=14;fontColor=#FFFF33;" parent="1" vertex="1">
                    <mxGeometry x="1068" y="240" width="170" height="40" as="geometry"/>
                </mxCell>
                <mxCell id="40" style="edgeStyle=orthogonalEdgeStyle;rounded=0;orthogonalLoop=1;jettySize=auto;html=1;entryX=0;entryY=0.5;entryDx=0;entryDy=0;fontSize=14;fontColor=#FFFF33;" parent="1" source="39" target="34" edge="1">
                    <mxGeometry relative="1" as="geometry">
                        <Array as="points">
                            <mxPoint x="847" y="330"/>
                            <mxPoint x="1040" y="330"/>
                            <mxPoint x="1040" y="380"/>
                        </Array>
                    </mxGeometry>
                </mxCell>
                <mxCell id="39" value="&lt;font color=&quot;#ff66b3&quot;&gt;QUERY DETAIL x CUIL&lt;/font&gt;" style="shape=hexagon;perimeter=hexagonPerimeter2;whiteSpace=wrap;html=1;fixedSize=1;fontSize=14;fontColor=#FFFF33;" parent="1" vertex="1">
                    <mxGeometry x="761.5" y="240" width="170" height="40" as="geometry"/>
                </mxCell>
                <mxCell id="45" style="edgeStyle=orthogonalEdgeStyle;rounded=0;orthogonalLoop=1;jettySize=auto;html=1;exitX=0;exitY=0.5;exitDx=0;exitDy=0;fontSize=14;fontColor=#FFFF33;" parent="1" source="43" target="44" edge="1">
                    <mxGeometry relative="1" as="geometry"/>
                </mxCell>
                <mxCell id="43" value="&lt;font color=&quot;#ff66b3&quot;&gt;JUDICIALES (NO)&lt;/font&gt;" style="shape=hexagon;perimeter=hexagonPerimeter2;whiteSpace=wrap;html=1;fixedSize=1;fontSize=14;fontColor=#FFFF33;" parent="1" vertex="1">
                    <mxGeometry x="760" y="195" width="170" height="30" as="geometry"/>
                </mxCell>
                <mxCell id="44" value="Validar DOCS=0" style="shape=process;whiteSpace=wrap;html=1;backgroundOutline=1;fontSize=14;fontColor=#FFFF33;" parent="1" vertex="1">
                    <mxGeometry x="190" y="10" width="190" height="60" as="geometry"/>
                </mxCell>
                <mxCell id="47" value="" style="endArrow=none;dashed=1;html=1;fontSize=39;fontColor=#FFFF33;" edge="1" parent="1">
                    <mxGeometry width="50" height="50" relative="1" as="geometry">
                        <mxPoint x="680" y="953.4720284598214" as="sourcePoint"/>
                        <mxPoint x="680" y="-160" as="targetPoint"/>
                    </mxGeometry>
                </mxCell>
                <mxCell id="51" style="edgeStyle=orthogonalEdgeStyle;rounded=0;orthogonalLoop=1;jettySize=auto;html=1;exitX=1;exitY=0.5;exitDx=0;exitDy=0;entryX=0;entryY=0.5;entryDx=0;entryDy=0;fontSize=39;fontColor=#FFFF33;" edge="1" parent="1" source="50" target="20">
                    <mxGeometry relative="1" as="geometry"/>
                </mxCell>
                <mxCell id="50" value="&lt;font color=&quot;#ff66b3&quot;&gt;QUERY Create CD RE&lt;/font&gt;" style="shape=hexagon;perimeter=hexagonPerimeter2;whiteSpace=wrap;html=1;fixedSize=1;fontSize=14;fontColor=#FFFF33;" vertex="1" parent="1">
                    <mxGeometry x="1068" y="110" width="170" height="40" as="geometry"/>
                </mxCell>
                <mxCell id="52" value="" style="rounded=1;whiteSpace=wrap;html=1;fontSize=14;fontColor=#FFFF33;" vertex="1" parent="1">
                    <mxGeometry x="1373" y="144" width="120" height="60" as="geometry"/>
                </mxCell>
                <mxCell id="53" value="&lt;font color=&quot;#ff66b3&quot;&gt;Submit&lt;/font&gt;" style="shape=hexagon;perimeter=hexagonPerimeter2;whiteSpace=wrap;html=1;fixedSize=1;fontSize=14;fontColor=#FFFF33;" vertex="1" parent="1">
                    <mxGeometry x="1393" y="160" width="80" height="30" as="geometry"/>
                </mxCell>
                <mxCell id="54" value="cd_em_Create.ejs" style="text;html=1;strokeColor=none;fillColor=none;align=center;verticalAlign=middle;whiteSpace=wrap;rounded=0;fontSize=14;fontColor=#FFFF33;" vertex="1" parent="1">
                    <mxGeometry x="1413" y="124" width="40" height="20" as="geometry"/>
                </mxCell>
                <mxCell id="55" value="" style="rounded=1;whiteSpace=wrap;html=1;fontSize=14;fontColor=#FFFF33;" vertex="1" parent="1">
                    <mxGeometry x="1373" y="230" width="120" height="60" as="geometry"/>
                </mxCell>
                <mxCell id="56" value="&lt;font color=&quot;#ff66b3&quot;&gt;Submit&lt;/font&gt;" style="shape=hexagon;perimeter=hexagonPerimeter2;whiteSpace=wrap;html=1;fixedSize=1;fontSize=14;fontColor=#FFFF33;" vertex="1" parent="1">
                    <mxGeometry x="1393" y="246" width="80" height="30" as="geometry"/>
                </mxCell>
                <mxCell id="57" value="cd_au_Create.ejs" style="text;html=1;strokeColor=none;fillColor=none;align=center;verticalAlign=middle;whiteSpace=wrap;rounded=0;fontSize=14;fontColor=#FFFF33;" vertex="1" parent="1">
                    <mxGeometry x="1413" y="210" width="40" height="20" as="geometry"/>
                </mxCell>
                <mxCell id="60" style="edgeStyle=orthogonalEdgeStyle;rounded=0;orthogonalLoop=1;jettySize=auto;html=1;exitX=1;exitY=0.5;exitDx=0;exitDy=0;fontSize=39;fontColor=#FFFF33;" edge="1" parent="1" source="58">
                    <mxGeometry relative="1" as="geometry">
                        <mxPoint x="1370" y="173.72413793103465" as="targetPoint"/>
                    </mxGeometry>
                </mxCell>
                <mxCell id="58" value="&lt;font color=&quot;#ff66b3&quot;&gt;QUERY Create CD EM&lt;/font&gt;" style="shape=hexagon;perimeter=hexagonPerimeter2;whiteSpace=wrap;html=1;fixedSize=1;fontSize=14;fontColor=#FFFF33;" vertex="1" parent="1">
                    <mxGeometry x="1068" y="154" width="170" height="40" as="geometry"/>
                </mxCell>
                <mxCell id="61" style="edgeStyle=orthogonalEdgeStyle;rounded=0;orthogonalLoop=1;jettySize=auto;html=1;exitX=1;exitY=0.5;exitDx=0;exitDy=0;entryX=0;entryY=0.5;entryDx=0;entryDy=0;fontSize=39;fontColor=#FFFF33;" edge="1" parent="1" source="59" target="55">
                    <mxGeometry relative="1" as="geometry"/>
                </mxCell>
                <mxCell id="59" value="&lt;font color=&quot;#ff66b3&quot;&gt;QUERY Create CD AU&lt;/font&gt;" style="shape=hexagon;perimeter=hexagonPerimeter2;whiteSpace=wrap;html=1;fixedSize=1;fontSize=14;fontColor=#FFFF33;" vertex="1" parent="1">
                    <mxGeometry x="1068" y="196" width="170" height="40" as="geometry"/>
                </mxCell>
            </root>
        </mxGraphModel>
    </diagram>
</mxfile>